<svg width="224" height="82" viewBox="0 0 224 82" fill="none" xmlns="http://www.w3.org/2000/svg">
<rect opacity="0.2" width="74.8323" height="74.8323" rx="37.4161" fill="#FA7275"/>
<rect x="32.7383" y="31.1797" width="49.8882" height="49.8882" rx="24.9441" fill="#FA7275"/>
<path d="M113.001 53.2951C111.255 53.2951 109.684 52.9958 108.287 52.3971C106.89 51.7735 105.793 50.9005 104.994 49.778C104.196 48.6555 103.797 47.3459 103.797 45.8493H108.362C108.462 46.9718 108.898 47.8947 109.671 48.6181C110.47 49.3415 111.58 49.7032 113.001 49.7032C114.473 49.7032 115.621 49.3539 116.444 48.6555C117.267 47.9321 117.678 47.0092 117.678 45.8867C117.678 45.0137 117.417 44.3028 116.893 43.754C116.394 43.2052 115.758 42.7812 114.985 42.4818C114.236 42.1825 113.189 41.8582 111.842 41.509C110.145 41.06 108.761 40.611 107.688 40.162C106.641 39.6881 105.743 38.9647 104.994 37.9919C104.246 37.0191 103.872 35.722 103.872 34.1006C103.872 32.604 104.246 31.2944 104.994 30.1719C105.743 29.0495 106.79 28.1889 108.137 27.5902C109.484 26.9916 111.043 26.6922 112.814 26.6922C115.334 26.6922 117.392 27.3283 118.988 28.6005C120.609 29.8477 121.507 31.5688 121.682 33.7639H116.968C116.893 32.816 116.444 32.0053 115.621 31.3318C114.797 30.6583 113.712 30.3216 112.365 30.3216C111.143 30.3216 110.145 30.6334 109.372 31.257C108.599 31.8806 108.212 32.7786 108.212 33.951C108.212 34.7492 108.449 35.4102 108.923 35.934C109.422 36.4329 110.046 36.832 110.794 37.1313C111.542 37.4307 112.565 37.7549 113.862 38.1042C115.583 38.5781 116.98 39.052 118.053 39.526C119.15 39.9999 120.073 40.7358 120.821 41.7335C121.595 42.7063 121.981 44.0159 121.981 45.6622C121.981 46.9843 121.62 48.2315 120.896 49.4038C120.198 50.5762 119.163 51.5241 117.791 52.2475C116.444 52.9459 114.847 53.2951 113.001 53.2951ZM131.991 35.8966V47.3085C131.991 48.0818 132.165 48.643 132.515 48.9923C132.889 49.3165 133.512 49.4787 134.385 49.4787H137.005V53.0332H133.637C131.716 53.0332 130.245 52.5842 129.222 51.6862C128.199 50.7882 127.688 49.329 127.688 47.3085V35.8966H125.256V32.4169H127.688V27.2909H131.991V32.4169H137.005V35.8966H131.991ZM149.878 53.3699C147.933 53.3699 146.174 52.9334 144.603 52.0604C143.031 51.1624 141.796 49.9152 140.898 48.3188C140 46.6974 139.551 44.8266 139.551 42.7063C139.551 40.611 140.013 38.7527 140.936 37.1313C141.859 35.51 143.118 34.2628 144.715 33.3897C146.311 32.5167 148.095 32.0802 150.065 32.0802C152.036 32.0802 153.819 32.5167 155.416 33.3897C157.012 34.2628 158.272 35.51 159.195 37.1313C160.118 38.7527 160.579 40.611 160.579 42.7063C160.579 44.8016 160.105 46.66 159.158 48.2814C158.21 49.9027 156.913 51.1624 155.266 52.0604C153.645 52.9334 151.849 53.3699 149.878 53.3699ZM149.878 49.6657C150.976 49.6657 151.999 49.4038 152.946 48.88C153.919 48.3562 154.705 47.5704 155.304 46.5228C155.902 45.4751 156.202 44.203 156.202 42.7063C156.202 41.2097 155.915 39.95 155.341 38.9273C154.767 37.8797 154.007 37.0939 153.059 36.5701C152.111 36.0463 151.088 35.7844 149.991 35.7844C148.893 35.7844 147.87 36.0463 146.922 36.5701C145.999 37.0939 145.264 37.8797 144.715 38.9273C144.166 39.95 143.892 41.2097 143.892 42.7063C143.892 44.9264 144.453 46.6475 145.575 47.8698C146.723 49.0671 148.157 49.6657 149.878 49.6657ZM169.061 35.4102C169.685 34.3625 170.508 33.5519 171.531 32.9781C172.578 32.3795 173.813 32.0802 175.235 32.0802V36.4953H174.15C172.479 36.4953 171.207 36.9193 170.334 37.7674C169.485 38.6155 169.061 40.0872 169.061 42.1825V53.0332H164.796V32.4169H169.061V35.4102ZM198.051 42.2199C198.051 42.9932 198.001 43.6916 197.901 44.3152H182.149C182.274 45.9616 182.885 47.2836 183.983 48.2814C185.08 49.2791 186.427 49.778 188.023 49.778C190.318 49.778 191.94 48.8177 192.888 46.897H197.49C196.866 48.7927 195.731 50.3517 194.085 51.574C192.464 52.7713 190.443 53.3699 188.023 53.3699C186.053 53.3699 184.282 52.9334 182.71 52.0604C181.164 51.1624 179.942 49.9152 179.044 48.3188C178.171 46.6974 177.734 44.8266 177.734 42.7063C177.734 40.5861 178.158 38.7278 179.006 37.1313C179.879 35.51 181.089 34.2628 182.636 33.3897C184.207 32.5167 186.003 32.0802 188.023 32.0802C189.969 32.0802 191.703 32.5042 193.224 33.3523C194.746 34.2004 195.931 35.3977 196.779 36.9443C197.627 38.4658 198.051 40.2244 198.051 42.2199ZM193.598 40.873C193.574 39.3015 193.012 38.0418 191.915 37.0939C190.817 36.146 189.458 35.6721 187.836 35.6721C186.365 35.6721 185.105 36.146 184.057 37.0939C183.01 38.0169 182.386 39.2765 182.187 40.873H193.598ZM206.514 27.029V53.0332H202.249V27.029H206.514ZM217.091 35.8966V47.3085C217.091 48.0818 217.265 48.643 217.614 48.9923C217.989 49.3165 218.612 49.4787 219.485 49.4787H222.104V53.0332H218.737C216.816 53.0332 215.344 52.5842 214.322 51.6862C213.299 50.7882 212.788 49.329 212.788 47.3085V35.8966H210.356V32.4169H212.788V27.2909H217.091V32.4169H222.104V35.8966H217.091Z" fill="#FA7275"/>
</svg>
